<svg xmlns="http://www.w3.org/2000/svg" width="358" height="24">
    <path fill-rule="evenodd" fill="#333" d="M357.012 22.299c-.514.52-1.164.779-1.953.779-.788 0-1.444-.259-1.966-.779-.523-.52-.784-1.171-.784-1.956 0-.783.261-1.435.784-1.955.522-.519 1.178-.779 1.966-.779.789 0 1.439.26 1.953.779.512.52.77 1.172.77 1.955 0 .785-.258 1.436-.77 1.956zm-11.936.779c-.788 0-1.444-.259-1.966-.779-.523-.52-.784-1.171-.784-1.956 0-.783.261-1.435.784-1.955.522-.519 1.178-.779 1.966-.779.789 0 1.44.26 1.953.779.513.52.77 1.172.77 1.955 0 .785-.257 1.436-.77 1.956s-1.164.779-1.953.779zm-9.982 0c-.789 0-1.444-.259-1.966-.779-.523-.52-.785-1.171-.785-1.956 0-.783.262-1.435.785-1.955.522-.519 1.177-.779 1.966-.779.788 0 1.439.26 1.953.779.512.52.77 1.172.77 1.955 0 .785-.258 1.436-.77 1.956-.514.52-1.165.779-1.953.779zm-12.624-1.612c-1.814.929-3.941 1.394-6.379 1.394H307.4V.572h8.691c2.438 0 4.565.469 6.379 1.408 1.816.939 3.209 2.252 4.181 3.938.971 1.686 1.457 3.623 1.457 5.811 0 2.188-.486 4.126-1.457 5.812-.972 1.686-2.365 2.994-4.181 3.925zm-1.209-14.714c-1.229-1.185-2.925-1.778-5.088-1.778h-3.768v13.483h3.768c2.163 0 3.859-.588 5.088-1.764 1.228-1.176 1.842-2.831 1.842-4.964 0-2.133-.614-3.792-1.842-4.977zM285.207.572h16.666v4.321h-11.661v4.539h10.698v4.321h-10.698v4.786h11.908v4.321h-16.913V.572zm-10.491 21.549c-1.55.857-3.341 1.286-5.376 1.286-2.036 0-3.827-.429-5.376-1.286a8.93 8.93 0 0 1-3.603-3.651c-.852-1.576-1.279-3.405-1.279-5.483V.572h5.005v12.415c0 1.787.471 3.223 1.416 4.308.944 1.085 2.224 1.626 3.837 1.626 1.612 0 2.892-.541 3.836-1.626.945-1.085 1.417-2.521 1.417-4.308V.572h5.004v12.415c0 2.078-.425 3.907-1.278 5.483a8.936 8.936 0 0 1-3.603 3.651zM238.099 9.186V22.86h-5.005V.572h4.18l11.193 13.4V.298h5.005v22.289h-4.18L238.099 9.186zM222.204.572h5.005V22.86h-5.005V.572zM210.296 22.86h-5.005V4.974h-7.288V.572h19.581v4.402h-7.288V22.86zM178.011 9.186V22.86h-5.005V.572h4.18l11.192 13.4V.298h5.006v22.289h-4.18L178.011 9.186zm-15.799 12.703c-1.842 1.011-3.909 1.518-6.201 1.518s-4.359-.507-6.202-1.518c-1.842-1.012-3.286-2.407-4.331-4.184-1.045-1.778-1.568-3.779-1.568-6.003s.523-4.226 1.568-6.003c1.045-1.778 2.489-3.172 4.331-4.184 1.843-1.012 3.91-1.518 6.202-1.518s4.359.506 6.201 1.518c1.842 1.012 3.286 2.406 4.332 4.184 1.045 1.777 1.567 3.779 1.567 6.003s-.522 4.225-1.567 6.003c-1.046 1.777-2.49 3.172-4.332 4.184zm-.027-13.906a6.679 6.679 0 0 0-2.544-2.571c-1.082-.62-2.292-.93-3.63-.93-1.339 0-2.549.31-3.63.93a6.672 6.672 0 0 0-2.544 2.571c-.615 1.093-.921 2.334-.921 3.719 0 1.367.306 2.602.921 3.706a6.645 6.645 0 0 0 2.544 2.584c1.081.62 2.291.929 3.63.929 1.338 0 2.548-.309 3.63-.929a6.652 6.652 0 0 0 2.544-2.584c.614-1.104.921-2.339.921-3.706 0-1.385-.307-2.626-.921-3.719zm-37.031 9.94c1.082.611 2.292.917 3.63.917a7.102 7.102 0 0 0 2.902-.602c.908-.401 1.658-.92 2.255-1.559.595-.638.958-1.294 1.086-1.969h5.06c-.238 1.513-.871 2.935-1.898 4.266-1.026 1.331-2.369 2.403-4.028 3.213-1.659.812-3.489 1.218-5.486 1.218-2.274 0-4.323-.507-6.147-1.518-1.824-1.012-3.255-2.407-4.291-4.184-1.035-1.778-1.553-3.779-1.553-6.003s.518-4.226 1.553-6.003c1.036-1.778 2.467-3.172 4.291-4.184 1.824-1.012 3.873-1.518 6.147-1.518 1.997 0 3.79.365 5.376 1.094 1.585.73 2.873 1.732 3.863 3.008a10.09 10.09 0 0 1 1.953 4.294h-5.06c-.275-1.094-.958-2.005-2.049-2.735-1.091-.729-2.415-1.094-3.974-1.094-1.338 0-2.548.305-3.63.916a6.602 6.602 0 0 0-2.544 2.544c-.614 1.085-.921 2.31-.921 3.678 0 1.349.307 2.571.921 3.664a6.562 6.562 0 0 0 2.544 2.557zM85.856.572h16.665v4.321h-11.66v4.539h10.697v4.321H90.861v4.786h11.907v4.321H85.856V.572zm-8.58 21.468c-1.21.547-2.64.82-4.291.82h-10.56V.572h9.736c2.457 0 4.367.592 5.733 1.777 1.366 1.185 2.05 2.808 2.05 4.868 0 .821-.248 1.618-.743 2.393-.495.775-1.118 1.298-1.87 1.573 1.063.346 1.939.98 2.626 1.9.687.921 1.032 1.928 1.032 3.022 0 1.367-.316 2.562-.949 3.583-.633 1.02-1.554 1.804-2.764 2.352zM74.154 5.426c-.522-.41-1.261-.616-2.213-.616h-4.51v4.786h4.51c.952 0 1.691-.205 2.213-.615.523-.41.784-.998.784-1.764 0-.784-.261-1.381-.784-1.791zm.977 8.819c-.569-.437-1.357-.656-2.365-.656h-5.335v5.032h5.335c1.008 0 1.796-.219 2.365-.657.568-.437.853-1.057.853-1.859s-.285-1.422-.853-1.86zm-33.125 7.644c-1.843 1.011-3.91 1.518-6.202 1.518s-4.359-.507-6.201-1.518c-1.842-1.012-3.286-2.407-4.332-4.184-1.045-1.778-1.567-3.779-1.567-6.003s.522-4.226 1.567-6.003c1.046-1.778 2.49-3.172 4.332-4.184C31.445.503 33.512-.003 35.804-.003s4.359.506 6.202 1.518c1.842 1.012 3.286 2.406 4.331 4.184 1.045 1.777 1.567 3.779 1.567 6.003s-.522 4.225-1.567 6.003c-1.045 1.777-2.489 3.172-4.331 4.184zm-.028-13.906a6.676 6.676 0 0 0-2.543-2.571c-1.082-.62-2.293-.93-3.631-.93-1.339 0-2.548.31-3.629.93a6.667 6.667 0 0 0-2.545 2.571c-.614 1.093-.921 2.334-.921 3.719 0 1.367.307 2.602.921 3.706a6.64 6.64 0 0 0 2.545 2.584c1.081.62 2.29.929 3.629.929 1.338 0 2.549-.309 3.631-.929a6.65 6.65 0 0 0 2.543-2.584c.614-1.104.922-2.339.922-3.706 0-1.385-.308-2.626-.922-3.719zM12.787 22.86H7.781V4.974H.494V.572h19.58v4.402h-7.287V22.86z"/>
</svg>
